HIERARCHY
ROOT joint_Root
{
	OFFSET 0.0 0.0 0.0
	CHANNELS 6 Xposition Yposition Zposition Zrotation Xrotation Yrotation 
	JOINT Hips
	{
		OFFSET -0.726466 93.3139 -2.00062
		CHANNELS 6 Xposition Yposition Zposition Zrotation Xrotation Yrotation 
		JOINT Spine
		{
			OFFSET 15.7357 0.0 0.0
			CHANNELS 6 Xposition Yposition Zposition Zrotation Xrotation Yrotation 
			JOINT Chest
			{
				OFFSET 8.98455 -0.406207 0.0
				CHANNELS 6 Xposition Yposition Zposition Zrotation Xrotation Yrotation 
				JOINT Neck
				{
					OFFSET 16.3773 0.0 0.0
					CHANNELS 6 Xposition Yposition Zposition Zrotation Xrotation Yrotation 
					JOINT Head
					{
						OFFSET 6.45672 0.0 0.0
						CHANNELS 6 Xposition Yposition Zposition Zrotation Xrotation Yrotation 
						End Site
						{
							OFFSET 0.0 0.0 0.0
						}
					}
				}
				JOINT Shoulder_L
				{
					OFFSET 12.9942 -0.242716 4.98039
					CHANNELS 6 Xposition Yposition Zposition Zrotation Xrotation Yrotation 
					JOINT UpperArm_L
					{
						OFFSET 5.34809 0.0 0.0
						CHANNELS 6 Xposition Yposition Zposition Zrotation Xrotation Yrotation 
						JOINT LowerArm_L
						{
							OFFSET 24.3286 1.87007e-05 0.0
							CHANNELS 6 Xposition Yposition Zposition Zrotation Xrotation Yrotation 
							JOINT Hand_L
							{
								OFFSET 22.2916 0.0 0.0
								CHANNELS 6 Xposition Yposition Zposition Zrotation Xrotation Yrotation 
								End Site
								{
									OFFSET 0.0 0.0 0.0
								}
							}
						}
					}
				}
				JOINT Shoulder_R
				{
					OFFSET 12.9945 -0.242716 -4.98039
					CHANNELS 6 Xposition Yposition Zposition Zrotation Xrotation Yrotation 
					JOINT UpperArm_R
					{
						OFFSET -5.34813 0.0 0.0
						CHANNELS 6 Xposition Yposition Zposition Zrotation Xrotation Yrotation 
						JOINT LowerArm_R
						{
							OFFSET -24.3289 0.000322201 0.0
							CHANNELS 6 Xposition Yposition Zposition Zrotation Xrotation Yrotation 
							JOINT Hand_R
							{
								OFFSET -22.2915 -0.000108084 0.0
								CHANNELS 6 Xposition Yposition Zposition Zrotation Xrotation Yrotation 
								End Site
								{
									OFFSET 0.0 0.0 0.0
								}
							}
						}
					}
				}
			}
		}
		JOINT UpperLeg_L
		{
			OFFSET -2.19248 -6.46944 0.0
			CHANNELS 6 Xposition Yposition Zposition Zrotation Xrotation Yrotation 
			JOINT LowerLeg_L
			{
				OFFSET 39.0811 0.0 -1.23785e-05
				CHANNELS 6 Xposition Yposition Zposition Zrotation Xrotation Yrotation 
				JOINT Foot_L
				{
					OFFSET 40.9854 0.0 -1.26872e-05
					CHANNELS 6 Xposition Yposition Zposition Zrotation Xrotation Yrotation 
					JOINT Toes_L
					{
						OFFSET 11.7543 0.0 0.0
						CHANNELS 6 Xposition Yposition Zposition Zrotation Xrotation Yrotation 
						End Site
						{
							OFFSET 0.0 0.0 0.0
						}
					}
				}
			}
		}
		JOINT UpperLeg_R
		{
			OFFSET -2.19251 6.46944 0.0
			CHANNELS 6 Xposition Yposition Zposition Zrotation Xrotation Yrotation 
			JOINT LowerLeg_R
			{
				OFFSET -39.0811 -0.00228153 -0.0401928
				CHANNELS 6 Xposition Yposition Zposition Zrotation Xrotation Yrotation 
				JOINT Foot_R
				{
					OFFSET -40.9854 0.0 0.0
					CHANNELS 6 Xposition Yposition Zposition Zrotation Xrotation Yrotation 
					JOINT Toes_R
					{
						OFFSET -11.7543 0.0 0.0
						CHANNELS 6 Xposition Yposition Zposition Zrotation Xrotation Yrotation 
						End Site
						{
							OFFSET 0.0 0.0 0.0
						}
					}
				}
			}
		}
	}
}
MOTION
Frames:	7
Frame Time:	0.0333333
0.000000 0.000000 0.000000 0.000000 0.000000 -0.000000 -0.818236 91.832000 0.984496 87.755000 -0.225805 2.005750 15.735700 0.000005 -0.000001 84.908300 86.079000 -84.812300 8.984550 -0.406207 -0.000000 0.045649 -0.702267 0.192122 16.377300 -0.000001 -0.000001 2.800890 -1.545840 -0.962523 6.456720 -0.000001 -0.000000 2.638250 -0.509636 4.914320 12.994200 -0.242716 4.980390 -89.267800 -2.063150 -70.456400 5.348090 -0.000007 -0.000001 -67.604600 37.157700 -15.101600 24.328600 0.000019 0.000005 1.434660 3.267780 -23.718100 22.291600 -0.000001 0.000005 2.917440 5.548400 -8.630180 12.994500 -0.242716 -4.980390 87.707500 6.105960 -69.375700 -5.348130 -0.000001 -0.000004 -67.717400 31.552000 -12.599200 -24.328900 0.000322 -0.000009 -1.506570 -3.846820 -21.392700 -22.291500 -0.000108 -0.000004 3.869130 5.550740 -8.740460 -2.192480 -6.469440 -0.000000 -168.466000 -15.918200 -2.709480 39.081100 -0.000007 -0.000012 -0.214978 0.544688 21.538600 40.985400 -0.000006 -0.000013 -7.382400 0.938844 -64.659900 11.754300 -0.000000 0.000003 -0.000183 -0.001719 -16.642600 -2.192510 6.469440 -0.000001 173.423000 21.473900 -179.206000 -39.081100 -0.002282 -0.040193 -0.064852 0.209452 18.030300 -40.985400 0.000008 0.000006 -4.832510 3.623230 -64.177000 -11.754300 -0.000006 -0.000006 -0.001925 -0.027775 -17.702500
0.000000 0.000000 0.000000 0.000000 0.000000 -0.000000 -0.812413 91.865600 0.892811 87.744600 -0.290009 1.853050 15.735700 0.000005 -0.000001 84.974300 86.103700 -84.874800 8.984550 -0.406207 -0.000000 -0.002806 -0.689222 0.198777 16.377300 -0.000001 -0.000001 2.357080 -1.487440 -0.924508 6.456720 -0.000001 -0.000000 2.249140 -0.520362 4.866100 12.994200 -0.242716 4.980390 -89.238500 -2.114650 -70.191000 5.348090 -0.000007 -0.000001 -68.256200 34.270500 -14.163900 24.328600 0.000019 0.000005 1.543400 3.377300 -24.576800 22.291600 -0.000001 0.000005 3.340520 5.553980 -8.895590 12.994500 -0.242716 -4.980390 87.783000 5.824810 -69.119800 -5.348130 -0.000001 -0.000004 -67.944200 29.750700 -12.308600 -24.328900 0.000322 -0.000009 -1.544010 -3.868170 -21.766100 -22.291500 -0.000108 -0.000004 4.543910 5.556690 -9.024630 -2.192480 -6.469440 -0.000000 -168.517000 -16.013000 -2.842030 39.081100 -0.000007 -0.000012 -0.211757 0.541129 21.372000 40.985400 -0.000006 -0.000013 -7.363490 0.917833 -64.510900 11.754300 -0.000000 0.000003 -0.000208 -0.001911 -16.649600 -2.192510 6.469440 -0.000001 173.565000 21.457700 -179.428000 -39.081100 -0.002282 -0.040193 -0.057900 0.189054 17.944600 -40.985400 0.000008 0.000006 -4.629220 3.549080 -64.071900 -11.754300 -0.000006 -0.000006 -0.001988 -0.028564 -17.734600
0.000000 0.000000 0.000000 0.000000 0.000000 -0.000000 -0.804012 91.912200 0.785491 87.783800 -0.334046 1.641170 15.735700 0.000005 -0.000001 84.968500 86.165900 -84.878200 8.984550 -0.406207 -0.000000 -0.126850 -0.678580 0.179697 16.377300 -0.000001 -0.000001 1.977850 -1.389010 -0.893824 6.456720 -0.000001 -0.000000 1.568260 -0.488399 4.879660 12.994200 -0.242716 4.980390 -89.173500 -2.238990 -69.732300 5.348090 -0.000007 -0.000001 -68.702900 29.802200 -13.384800 24.328600 0.000019 0.000005 1.461330 3.151370 -24.892400 22.291600 -0.000001 0.000005 3.900520 5.555150 -8.950850 12.994500 -0.242716 -4.980390 87.882900 5.443620 -68.709900 -5.348130 -0.000001 -0.000004 -68.177800 26.148400 -12.017800 -24.328900 0.000322 -0.000009 -1.468960 -3.703750 -21.638200 -22.291500 -0.000108 -0.000004 6.052420 5.557910 -9.085680 -2.192480 -6.469440 -0.000000 -168.658000 -16.052200 -2.980790 39.081100 -0.000007 -0.000012 -0.204462 0.530483 21.078300 40.985400 -0.000006 -0.000013 -7.341000 0.847612 -64.305600 11.754300 -0.000000 0.000003 -0.000199 -0.001840 -16.647000 -2.192510 6.469440 -0.000001 173.689000 21.421600 -179.706000 -39.081100 -0.002282 -0.040193 -0.047757 0.158795 17.832500 -40.985400 0.000008 0.000006 -4.290180 3.497620 -63.966400 -11.754300 -0.000006 -0.000006 -0.002126 -0.030278 -17.804300
0.000000 0.000000 0.000000 0.000000 0.000000 -0.000000 -0.828247 91.952700 0.645513 87.737100 -0.289593 1.398640 15.735700 0.000005 -0.000001 84.745300 86.249200 -84.643700 8.984550 -0.406207 -0.000000 -0.295275 -0.694014 0.201354 16.377300 -0.000001 -0.000001 1.585280 -1.307860 -0.833636 6.456720 -0.000001 -0.000000 0.771419 -0.404096 4.934790 12.994200 -0.242716 4.980390 -89.093900 -2.407780 -69.370000 5.348090 -0.000007 -0.000001 -68.013700 24.983600 -13.335900 24.328600 0.000019 0.000005 1.313300 2.922880 -24.207200 22.291600 -0.000001 0.000005 5.120520 5.559850 -9.178390 12.994500 -0.242716 -4.980390 87.990500 5.065550 -68.328500 -5.348130 -0.000001 -0.000004 -67.700200 21.490900 -12.171000 -24.328900 0.000322 -0.000009 -1.568200 -4.205330 -20.459200 -22.291500 -0.000108 -0.000004 7.658550 5.560380 -9.207040 -2.192480 -6.469440 -0.000000 -168.695000 -16.076700 -3.259950 39.081100 -0.000007 -0.000012 -0.199158 0.521615 20.897700 40.985400 -0.000006 -0.000013 -7.331380 0.838194 -64.103500 11.754300 -0.000000 0.000003 -0.000169 -0.001606 -16.638400 -2.192510 6.469440 -0.000001 173.956000 21.355600 179.951000 -39.081100 -0.002282 -0.040193 -0.039864 0.135050 17.734400 -40.985400 0.000008 0.000006 -3.982010 3.284510 -63.855900 -11.754300 -0.000006 -0.000006 -0.002173 -0.030867 -17.828300
0.000000 0.000000 0.000000 0.000000 0.000000 -0.000000 -0.830414 91.975300 0.537806 87.733100 -0.287878 1.259030 15.735700 0.000005 -0.000001 84.713200 86.317200 -84.624900 8.984550 -0.406207 -0.000000 -0.431249 -0.684834 0.173966 16.377300 -0.000001 -0.000001 1.060890 -1.216980 -0.784245 6.456720 -0.000001 -0.000000 0.070354 -0.281988 5.136570 12.994200 -0.242716 4.980390 -88.955500 -2.741380 -69.132800 5.348090 -0.000007 -0.000001 -66.072800 20.413900 -13.924200 24.328600 0.000019 0.000005 1.444410 3.431310 -22.845000 22.291600 -0.000001 0.000005 6.641020 5.561390 -9.254580 12.994500 -0.242716 -4.980390 88.128800 4.662920 -68.106100 -5.348130 -0.000001 -0.000004 -66.138400 16.578000 -12.965300 -24.328900 0.000322 -0.000009 -1.382440 -4.177190 -18.315600 -22.291500 -0.000108 -0.000004 8.710800 5.553670 -8.880870 -2.192480 -6.469440 -0.000000 -168.769000 -16.065300 -3.456960 39.081100 -0.000007 -0.000012 -0.196238 0.515923 20.825200 40.985400 -0.000006 -0.000013 -7.309720 0.786387 -63.993200 11.754300 -0.000000 0.000003 -0.000194 -0.001803 -16.645600 -2.192510 6.469440 -0.000001 174.045000 21.448600 179.749000 -39.081100 -0.002282 -0.040193 -0.037083 0.126830 17.672100 -40.985400 0.000008 0.000006 -3.910840 3.313790 -63.747300 -11.754300 -0.000006 -0.000006 -0.002284 -0.032213 -17.883000
0.000000 0.000000 0.000000 0.000000 0.000000 -0.000000 -0.845116 92.004300 0.413722 87.728500 -0.212876 1.058940 15.735700 0.000005 -0.000001 84.184500 86.424900 -84.097200 8.984550 -0.406207 -0.000000 -0.652008 -0.730761 0.170322 16.377300 -0.000001 -0.000001 0.464191 -1.097840 -0.711937 6.456720 -0.000001 -0.000000 -0.641999 -0.182428 5.325580 12.994200 -0.242716 4.980390 -88.750900 -3.253920 -68.986400 5.348090 -0.000007 -0.000001 -63.524300 15.332800 -14.802600 24.328600 0.000019 0.000005 1.448470 3.819390 -20.787100 22.291600 -0.000001 0.000005 7.894550 5.562220 -9.297370 12.994500 -0.242716 -4.980390 88.315800 4.164340 -67.957100 -5.348130 -0.000001 -0.000004 -63.426300 11.807300 -14.307800 -24.328900 0.000322 -0.000009 -1.000120 -3.582260 -15.592500 -22.291500 -0.000108 -0.000004 8.734110 5.540710 -8.274550 -2.192480 -6.469440 -0.000000 -168.843000 -16.043300 -3.720010 39.081100 -0.000007 -0.000012 -0.193351 0.511851 20.694300 40.985400 -0.000006 -0.000013 -7.292450 0.786037 -63.823100 11.754300 -0.000000 0.000003 -0.000175 -0.001657 -16.640300 -2.192510 6.469440 -0.000001 174.192000 21.418900 179.506000 -39.081100 -0.002282 -0.040193 -0.035738 0.123543 17.547000 -40.985400 0.000008 0.000006 -3.880140 3.191880 -63.621300 -11.754300 -0.000006 -0.000006 -0.002179 -0.030940 -17.831200
0.000000 0.000000 0.000000 0.000000 0.000000 -0.000000 -0.837293 92.031300 0.327925 87.740500 -0.203905 0.902109 15.735700 0.000005 -0.000001 84.192600 86.546200 -84.113300 8.984550 -0.406207 -0.000000 -0.893342 -0.704785 0.152957 16.377300 -0.000001 -0.000001 -0.233123 -0.993316 -0.609515 6.456720 -0.000001 -0.000000 -1.343710 -0.158958 5.530750 12.994200 -0.242716 4.980390 -88.492400 -3.899430 -68.843600 5.348090 -0.000007 -0.000001 -61.026700 8.599880 -15.779400 24.328600 0.000019 0.000005 1.467670 4.393050 -18.494300 22.291600 -0.000001 0.000005 8.815690 5.560180 -9.196940 12.994500 -0.242716 -4.980390 88.534400 3.588990 -67.770000 -5.348130 -0.000001 -0.000004 -60.257000 6.002680 -15.762700 -24.328900 0.000322 -0.000009 -0.638144 -2.761030 -12.998900 -22.291500 -0.000108 -0.000004 8.405820 5.526560 -7.645600 -2.192480 -6.469440 -0.000000 -168.935000 -16.011500 -3.878500 39.081100 -0.000007 -0.000012 -0.189680 0.506036 20.548100 40.985400 -0.000006 -0.000013 -7.276680 0.723316 -63.697900 11.754300 -0.000000 0.000003 -0.000186 -0.001740 -16.643300 -2.192510 6.469440 -0.000001 174.284000 21.424800 179.304000 -39.081100 -0.002282 -0.040193 -0.031479 0.110644 17.462000 -40.985400 0.000008 0.000006 -3.741080 3.138050 -63.526300 -11.754300 -0.000006 -0.000006 -0.002261 -0.031938 -17.871800
